<svg width="24" height="24" viewBox="0 0 24 24" fill="none" xmlns="http://www.w3.org/2000/svg">
<path fill-rule="evenodd" clip-rule="evenodd" d="M5.5011 7.21316L6.19455 15.6414C6.24515 16.2901 6.7638 16.7766 7.39746 16.7766H7.40206H19.9498H19.9521C20.5512 16.7766 21.063 16.3207 21.1481 15.7155L22.2406 8.00757C22.2659 7.82424 22.221 7.64092 22.1118 7.49285C22.0037 7.3436 21.845 7.24724 21.6656 7.22138C21.4252 7.23078 11.4512 7.21668 5.5011 7.21316ZM7.39512 18.5395C5.88057 18.5395 4.59831 17.3315 4.47526 15.7861L3.42186 2.98389L1.6888 2.67835C1.21845 2.59374 0.904499 2.13895 0.984999 1.65831C1.0678 1.17767 1.52205 0.865073 1.98205 0.940283L4.37406 1.36334C4.75931 1.43268 5.05257 1.75937 5.08592 2.15893L5.35617 5.45056C21.7736 5.45762 21.8265 5.46584 21.9059 5.47524C22.5464 5.57043 23.1099 5.9124 23.494 6.43888C23.8781 6.96418 24.0391 7.61169 23.9471 8.26038L22.8558 15.9671C22.6499 17.4337 21.4033 18.5395 19.9543 18.5395H19.9486H7.40432H7.39512Z" fill="#004A2B"/>
<path fill-rule="evenodd" clip-rule="evenodd" d="M18.1048 11.5564H14.917C14.4397 11.5564 14.0544 11.1617 14.0544 10.6753C14.0544 10.1889 14.4397 9.79417 14.917 9.79417H18.1048C18.5809 9.79417 18.9673 10.1889 18.9673 10.6753C18.9673 11.1617 18.5809 11.5564 18.1048 11.5564Z" fill="#004A2B"/>
<path fill-rule="evenodd" clip-rule="evenodd" d="M6.90054 21.7317C7.24668 21.7317 7.52612 22.0172 7.52612 22.3708C7.52612 22.7245 7.24668 23.0111 6.90054 23.0111C6.55325 23.0111 6.2738 22.7245 6.2738 22.3708C6.2738 22.0172 6.55325 21.7317 6.90054 21.7317Z" fill="#004A2B"/>
<mask id="mask0" mask-type="alpha" maskUnits="userSpaceOnUse" x="6" y="21" width="2" height="3">
<path fill-rule="evenodd" clip-rule="evenodd" d="M6.27307 22.3706C6.27307 22.7254 6.55253 23.0121 6.90099 23.0121C7.24715 23.0121 7.52661 22.7254 7.52661 22.3706C7.52661 22.017 7.24715 21.7315 6.90099 21.7315C6.55253 21.7315 6.27307 22.017 6.27307 22.3706Z" fill="white"/>
</mask>
<g mask="url(#mask0)">
<path fill-rule="evenodd" clip-rule="evenodd" d="M0.524292 28.887H13.2766V15.8556H0.524292V28.887Z" fill="#004A2B"/>
</g>
<path fill-rule="evenodd" clip-rule="evenodd" d="M6.89933 22.1302C6.76939 22.1302 6.6636 22.2383 6.6636 22.371C6.6636 22.6376 7.13621 22.6376 7.13621 22.371C7.13621 22.2383 7.02927 22.1302 6.89933 22.1302ZM6.89951 23.893C6.07839 23.893 5.41138 23.2102 5.41138 22.3711C5.41138 21.532 6.07839 20.8504 6.89951 20.8504C7.72063 20.8504 8.38879 21.532 8.38879 22.3711C8.38879 23.2102 7.72063 23.893 6.89951 23.893Z" fill="#004A2B"/>
<path fill-rule="evenodd" clip-rule="evenodd" d="M19.873 21.7318C20.2191 21.7318 20.4998 22.0173 20.4998 22.3709C20.4998 22.7246 20.2191 23.0112 19.873 23.0112C19.5257 23.0112 19.2462 22.7246 19.2462 22.3709C19.2462 22.0173 19.5257 21.7318 19.873 21.7318Z" fill="#004A2B"/>
<mask id="mask1" mask-type="alpha" maskUnits="userSpaceOnUse" x="19" y="21" width="2" height="3">
<path fill-rule="evenodd" clip-rule="evenodd" d="M19.246 22.3706C19.246 22.7254 19.5254 23.0121 19.8727 23.0121C20.2178 23.0121 20.4995 22.7254 20.4995 22.3706C20.4995 22.017 20.2178 21.7315 19.8727 21.7315C19.5254 21.7315 19.246 22.017 19.246 22.3706Z" fill="white"/>
</mask>
<g mask="url(#mask1)">
<path fill-rule="evenodd" clip-rule="evenodd" d="M13.4961 28.887H26.2496V15.8556H13.4961V28.887Z" fill="#004A2B"/>
</g>
<path fill-rule="evenodd" clip-rule="evenodd" d="M19.8717 22.1305C19.7429 22.1305 19.6371 22.2386 19.6371 22.3713C19.6382 22.6403 20.1097 22.6379 20.1085 22.3713C20.1085 22.2386 20.0016 22.1305 19.8717 22.1305ZM19.8718 23.893C19.0507 23.893 18.3837 23.2102 18.3837 22.3711C18.3837 21.532 19.0507 20.8504 19.8718 20.8504C20.694 20.8504 21.3622 21.532 21.3622 22.3711C21.3622 23.2102 20.694 23.893 19.8718 23.893Z" fill="#004A2B"/>
</svg>
