<svg width="35" height="35" viewBox="0 0 35 35" fill="none" xmlns="http://www.w3.org/2000/svg">
<rect width="35" height="35" rx="10" fill="white"/>
<path fill-rule="evenodd" clip-rule="evenodd" d="M17.5 22.75C20.3995 22.75 22.75 20.3995 22.75 17.5C22.75 14.6005 20.3995 12.25 17.5 12.25C14.6005 12.25 12.25 14.6005 12.25 17.5C12.25 20.3995 14.6005 22.75 17.5 22.75ZM17.5 26.25C22.3325 26.25 26.25 22.3325 26.25 17.5C26.25 12.6675 22.3325 8.75 17.5 8.75C12.6675 8.75 8.75 12.6675 8.75 17.5C8.75 22.3325 12.6675 26.25 17.5 26.25Z" fill="#CEB59A"/>
<path d="M29.75 6.5625C29.75 7.77062 28.7706 8.75 27.5625 8.75C26.3544 8.75 25.375 7.77062 25.375 6.5625C25.375 5.35438 26.3544 4.375 27.5625 4.375C28.7706 4.375 29.75 5.35438 29.75 6.5625Z" fill="#CEB59A"/>
</svg>
