<svg width="25" height="24" viewBox="0 0 25 24" fill="none" xmlns="http://www.w3.org/2000/svg">
<mask id="mask0" mask-type="alpha" maskUnits="userSpaceOnUse" x="0" y="0" width="25" height="24">
<path fill-rule="evenodd" clip-rule="evenodd" d="M0.82666 0.929134H24.8267V23.8929H0.82666V0.929134Z" fill="white"/>
</mask>
<g mask="url(#mask0)">
<path fill-rule="evenodd" clip-rule="evenodd" d="M2.96456 11.6719C4.60813 16.8085 11.1015 20.9618 12.8272 21.9898C14.5586 20.9512 21.0989 16.7519 22.6897 11.6766C23.7343 8.39591 22.7648 4.24026 18.9126 2.99322C17.0463 2.39148 14.8693 2.7577 13.3664 3.92585C13.0522 4.16843 12.6161 4.17314 12.2996 3.93292C10.7076 2.73062 8.62796 2.37853 6.73235 2.99322C2.88602 4.23909 1.92004 8.39473 2.96456 11.6719ZM12.8284 23.893C12.683 23.893 12.5388 23.8577 12.4075 23.7859C12.0406 23.5845 3.39722 18.7989 1.2906 12.2115C1.28942 12.2115 1.28942 12.2104 1.28942 12.2104C-0.0329311 8.06297 1.43948 2.85105 6.19316 1.31196C8.42522 0.586582 10.8577 0.905703 12.8249 2.15275C14.731 0.942208 17.2632 0.607778 19.4507 1.31196C24.2091 2.8534 25.6862 8.06415 24.365 12.2104C22.3264 18.7223 13.6197 23.5798 13.2504 23.7835C13.1191 23.8565 12.9737 23.893 12.8284 23.893Z" fill="#004A2B"/>
</g>
<path fill-rule="evenodd" clip-rule="evenodd" d="M19.7636 9.90811C19.3099 9.90811 18.9254 9.55837 18.8879 9.09677C18.8105 8.1288 18.1658 7.31157 17.2479 7.01365C16.7848 6.86292 16.5316 6.36481 16.6805 5.90202C16.8317 5.43806 17.3229 5.18606 17.7871 5.33208C19.385 5.85139 20.5045 7.27271 20.6417 8.9531C20.6804 9.43944 20.3205 9.86572 19.8363 9.90458C19.8117 9.90693 19.7882 9.90811 19.7636 9.90811Z" fill="#004A2B"/>
</svg>
