<svg width="20" height="24" viewBox="0 0 20 24" fill="none" xmlns="http://www.w3.org/2000/svg">
<mask id="mask0" mask-type="alpha" maskUnits="userSpaceOnUse" x="0" y="15" width="20" height="9">
<path fill-rule="evenodd" clip-rule="evenodd" d="M0.491699 15.3709H19.4917V23.893H0.491699V15.3709Z" fill="white"/>
</mask>
<g mask="url(#mask0)">
<path fill-rule="evenodd" clip-rule="evenodd" d="M9.99253 17.1039C4.88145 17.1039 2.29053 17.9499 2.29053 19.6199C2.29053 21.3049 4.88145 22.1589 9.99253 22.1589C15.1024 22.1589 17.6921 21.313 17.6921 19.643C17.6921 17.958 15.1024 17.1039 9.99253 17.1039M9.99284 23.893C7.64301 23.893 0.491577 23.893 0.491577 19.6204C0.491577 15.8112 5.91453 15.3709 9.99284 15.3709C12.3427 15.3709 19.4917 15.3709 19.4917 19.6435C19.4917 23.4526 14.0699 23.893 9.99284 23.893" fill="#CEB59A"/>
</g>
<mask id="mask1" mask-type="alpha" maskUnits="userSpaceOnUse" x="3" y="0" width="14" height="14">
<path fill-rule="evenodd" clip-rule="evenodd" d="M3.62231 0.929134H16.3611V13.201H3.62231V0.929134Z" fill="white"/>
</mask>
<g mask="url(#mask1)">
<path fill-rule="evenodd" clip-rule="evenodd" d="M9.99279 2.57851C7.42465 2.57851 5.33511 4.59058 5.33511 7.06492C5.32671 9.53118 7.40066 11.5421 9.958 11.5513L9.99279 12.3765V11.5513C12.5597 11.5513 14.6481 9.53811 14.6481 7.06492C14.6481 4.59058 12.5597 2.57851 9.99279 2.57851M9.99292 13.2011H9.95453C6.44958 13.1907 3.61036 10.4366 3.62235 7.06201C3.62235 3.6816 6.47957 0.928734 9.99292 0.928734C13.5051 0.928734 16.3611 3.6816 16.3611 7.06548C16.3611 10.4494 13.5051 13.2011 9.99292 13.2011" fill="#CEB59A"/>
</g>
</svg>
