<svg width="35" height="35" viewBox="0 0 35 35" fill="none" xmlns="http://www.w3.org/2000/svg">
<rect width="35" height="35" rx="10" fill="white"/>
<path d="M29.5238 22.9871C29.4556 22.8767 29.0337 21.9902 27.0036 20.1683C24.8783 18.2604 25.1638 18.5702 27.7237 15.2713C29.2827 13.2622 29.9061 12.0353 29.711 11.5108C29.5254 11.0108 28.3787 11.1427 28.3787 11.1427L24.5658 11.1642C24.5658 11.1642 24.2835 11.1274 24.0726 11.2486C23.868 11.3682 23.7363 11.6442 23.7363 11.6442C23.7363 11.6442 23.132 13.1994 22.3263 14.5214C20.6276 17.3111 19.9472 17.4583 19.6697 17.285C19.0241 16.8817 19.1859 15.6624 19.1859 14.7974C19.1859 12.0936 19.6094 10.9664 18.3596 10.675C17.944 10.5783 17.6395 10.5139 16.5785 10.5032C15.2176 10.4894 14.0646 10.5078 13.4127 10.8161C12.9781 11.0216 12.6435 11.4801 12.8481 11.5062C13.1002 11.5384 13.6712 11.655 13.9742 12.0537C14.3659 12.5675 14.3516 13.7239 14.3516 13.7239C14.3516 13.7239 14.5769 16.9062 13.8266 17.3019C13.3112 17.5733 12.6054 17.0197 11.0907 14.4876C10.3151 13.1917 9.72829 11.7577 9.72829 11.7577C9.72829 11.7577 9.61568 11.4909 9.41425 11.3482C9.16999 11.1749 8.82741 11.1197 8.82741 11.1197L5.20169 11.1412C5.20169 11.1412 4.65767 11.1565 4.45783 11.385C4.28019 11.589 4.44355 12.0092 4.44355 12.0092C4.44355 12.0092 7.28259 18.4306 10.4959 21.6682C13.4444 24.6358 16.791 24.441 16.791 24.441H18.3073C18.3073 24.441 18.7656 24.3919 18.9988 24.1481C19.2145 23.9242 19.2065 23.504 19.2065 23.504C19.2065 23.504 19.1764 21.5363 20.1217 21.2464C21.0527 20.9612 22.2486 23.1482 23.5159 23.9901C24.4738 24.6266 25.2018 24.487 25.2018 24.487L28.5912 24.441C28.5912 24.441 30.3644 24.3352 29.5238 22.9871Z" fill="#CEB59A"/>
</svg>
