<svg width="57" height="52" viewBox="0 0 57 52" fill="none" xmlns="http://www.w3.org/2000/svg">
<path d="M55.8867 35.5864H55.853V29.1063C55.8525 28.9044 55.8122 28.7887 55.7725 28.6901L51.737 18.0163C51.5733 17.5833 51.1587 17.2968 50.6956 17.2968H44.1103V10.3203C44.1103 8.64803 42.7505 7.2876 41.079 7.2876H21.4639C21.8215 7.9923 22.1116 8.73719 22.3258 9.5138H41.079C41.5227 9.5138 41.8838 9.87566 41.8838 10.3203V35.5863H10.053V23.4362C9.28382 23.3139 8.53926 23.1179 7.82643 22.8555V35.5864H7.79269C7.17783 35.5864 6.67941 36.0847 6.67941 36.6995V43.5461C6.67941 44.1609 7.17783 44.6592 7.79269 44.6592H12.9591C12.8778 45.0462 12.8351 45.4472 12.8351 45.858C12.8351 49.0554 15.4239 51.6567 18.6061 51.6567C21.7882 51.6567 24.3771 49.0554 24.3771 45.858C24.3771 45.4472 24.3344 45.0462 24.2531 44.6592H40.645C40.5638 45.0462 40.521 45.4472 40.521 45.858C40.521 49.0554 43.1099 51.6567 46.2921 51.6567C49.4743 51.6567 52.0632 49.0554 52.0632 45.858C52.0632 45.4472 52.0204 45.0462 51.9391 44.6592H55.8867C56.5015 44.6592 57 44.1609 57 43.5461V36.6995C57 36.0848 56.5015 35.5864 55.8867 35.5864ZM44.1106 19.5231H49.9263L53.1288 27.9932H44.1106V19.5231ZM44.1106 30.2194H53.6265V35.5858H44.1106V30.2194ZM18.6062 49.4305C16.6517 49.4305 15.0617 47.828 15.0617 45.858C15.0617 43.8882 16.6518 42.2856 18.6062 42.2856C20.5606 42.2856 22.1507 43.8881 22.1507 45.858C22.1507 47.828 20.5607 49.4305 18.6062 49.4305ZM46.2921 49.4305C44.3377 49.4305 42.7476 47.828 42.7476 45.858C42.7476 43.8882 44.3377 42.2856 46.2921 42.2856C48.2466 42.2856 49.8366 43.8881 49.8366 45.858C49.8366 47.828 48.2466 49.4305 46.2921 49.4305ZM54.7734 42.433H50.9616C50.9566 42.433 50.9515 42.4332 50.9465 42.4333C49.8954 40.9948 48.2005 40.0595 46.2923 40.0595C44.3841 40.0595 42.6892 40.9948 41.6381 42.4332H23.2764C23.2711 42.4332 23.2658 42.4333 23.2605 42.4334C22.2092 40.9949 20.5144 40.0596 18.6062 40.0596C16.698 40.0596 15.0033 40.9949 13.952 42.4333H8.90608V37.8128H54.7734V42.433Z" fill="#786551"/>
<path d="M11.9351 24.6975C18.5267 24.6975 23.8703 19.3338 23.8703 12.7173C23.8703 6.10079 18.5267 0.737061 11.9351 0.737061C5.34355 0.737061 0 6.10079 0 12.7173C0 19.3338 5.34355 24.6975 11.9351 24.6975Z" fill="#FBF0DC"/>
</svg>
