<svg width="51" height="52" viewBox="0 0 51 52" fill="none" xmlns="http://www.w3.org/2000/svg">
<path d="M37.2282 37.9131C43.6614 31.49 43.6232 21.0379 37.1427 14.5676C30.6623 8.09737 20.1937 8.05916 13.7605 14.4823C7.32725 20.9054 7.36552 31.3575 13.846 37.8277C20.3264 44.298 30.795 44.3362 37.2282 37.9131Z" fill="#FBF0DC"/>
<path d="M50.0071 25.6146C49.6461 24.8862 49.3051 24.1982 49.235 23.5891C49.1658 22.9871 49.3409 22.2474 49.5263 21.4642C49.7966 20.3224 50.103 19.0281 49.6737 17.8096C49.2526 16.6139 48.256 15.8324 47.2924 15.0767C46.6457 14.5696 46.035 14.0907 45.6983 13.5584C45.3828 13.0593 45.2208 12.3258 45.0492 11.5493C44.7938 10.3928 44.5041 9.08178 43.5731 8.15219C42.6419 7.22251 41.329 6.9334 40.1706 6.6784C39.3927 6.50704 38.6581 6.34533 38.1585 6.03026C37.6252 5.69411 37.1455 5.08436 36.6376 4.43872C35.8808 3.47661 35.0982 2.48168 33.9006 2.06119C32.6804 1.63275 31.3838 1.93866 30.2404 2.20848C29.4558 2.39356 28.7146 2.5681 28.1118 2.49928C27.5018 2.42927 26.8128 2.08884 26.0834 1.72842C25.0305 1.20838 23.8371 0.618823 22.5624 0.757659C21.292 0.896197 20.2635 1.72703 19.356 2.4601C18.7249 2.96989 18.1289 3.45144 17.546 3.65304C16.9824 3.84816 16.2253 3.83822 15.4245 3.82778C14.2422 3.81196 12.9023 3.79476 11.7996 4.48596C10.7373 5.15189 10.2045 6.28625 9.68917 7.38312C9.33894 8.12852 9.00834 8.83265 8.5583 9.28188C8.10836 9.73121 7.40312 10.0613 6.65655 10.411C5.55795 10.9254 4.4218 11.4573 3.75471 12.5181C3.06262 13.6189 3.08015 14.9568 3.09559 16.1373C3.10615 16.9372 3.11591 17.6927 2.92068 18.2554C2.71867 18.8374 2.23636 19.4325 1.72576 20.0625C0.991531 20.9685 0.159291 21.9955 0.0206337 23.2639C-0.118422 24.5367 0.471966 25.728 0.992926 26.7792C1.35391 27.5075 1.69488 28.1956 1.765 28.8046C1.83423 29.4066 1.65912 30.1463 1.47374 30.9295C1.2034 32.0714 0.897002 33.3656 1.32632 34.5841C1.74737 35.7799 2.74397 36.5614 3.70759 37.317C4.35426 37.8241 4.96497 38.303 5.30165 38.8354C5.61722 39.3344 5.77918 40.0679 5.95081 40.8444C6.20621 42.0009 6.49587 43.3119 7.42693 44.2415C8.35808 45.1712 9.67104 45.4603 10.8294 45.7153C11.6073 45.8867 12.3419 46.0484 12.8415 46.3634C13.3748 46.6996 13.8545 47.3093 14.3624 47.955C15.1192 48.9171 15.9018 49.912 17.0995 50.3325C18.3202 50.7612 19.6163 50.4552 20.7597 50.1853C21.5441 50.0003 22.2853 49.825 22.8882 49.8945C23.4982 49.9645 24.1873 50.305 24.9167 50.6654C25.8633 51.133 26.9234 51.6567 28.0541 51.6567C28.1811 51.6567 28.309 51.6502 28.4377 51.6362C29.7081 51.4976 30.7366 50.6668 31.6441 49.9337C32.2752 49.4239 32.8712 48.9424 33.4541 48.7408C34.0177 48.5456 34.7746 48.5557 35.5756 48.566C36.7576 48.5815 38.0978 48.599 39.2005 47.9079C40.2628 47.2419 40.7957 46.1076 41.3108 45.0107C41.6611 44.2653 41.9917 43.5612 42.4417 43.1119C42.8916 42.6626 43.5969 42.3325 44.3435 41.9828C45.4421 41.4684 46.5782 40.9365 47.2453 39.8758C47.9374 38.775 47.9198 37.437 47.9044 36.2566C47.894 35.4567 47.8841 34.7012 48.0793 34.1385C48.2813 33.5565 48.7636 32.9615 49.2742 32.3314C50.0085 31.4254 50.8406 30.3985 50.9794 29.13C51.1184 27.857 50.5279 26.6656 50.0071 25.6146ZM48.9987 28.914C48.9236 29.6014 48.3415 30.3197 47.7253 31.0801C47.1294 31.8156 46.5131 32.576 46.1969 33.487C45.8874 34.3788 45.9001 35.3465 45.9123 36.2824C45.9254 37.2757 45.9376 38.214 45.5579 38.8178C45.2022 39.3835 44.374 39.7712 43.4974 40.1817C42.6282 40.5887 41.7296 41.0095 41.0328 41.7051C40.3361 42.4007 39.9146 43.298 39.5071 44.1657C39.0959 45.041 38.7076 45.8678 38.141 46.2229C37.5363 46.6021 36.5966 46.5899 35.6016 46.5769C34.6645 46.5648 33.695 46.5519 32.8018 46.861C31.8893 47.1767 31.1276 47.792 30.391 48.3871C29.6295 49.0023 28.91 49.5834 28.2216 49.6585C27.5239 49.7344 26.6872 49.3206 25.8003 48.8823C24.9499 48.4621 24.0705 48.0277 23.1156 47.9182C22.9444 47.8986 22.7731 47.8898 22.6022 47.8898C21.8252 47.8898 21.0529 48.072 20.3015 48.2493C19.3391 48.4764 18.43 48.6911 17.7604 48.4558C17.1101 48.2275 16.5365 47.4982 15.929 46.7261C15.3391 45.9761 14.7291 45.2006 13.9051 44.6812C13.1109 44.1807 12.1692 43.9733 11.2585 43.7727C10.2799 43.5572 9.35538 43.3536 8.83571 42.8347C8.31595 42.3158 8.11205 41.3928 7.89619 40.4157C7.69528 39.5064 7.48759 38.5661 6.98625 37.7732C6.46589 36.9506 5.68923 36.3415 4.93808 35.7525C4.1647 35.146 3.43427 34.5733 3.20556 33.9239C2.97008 33.2553 3.18494 32.3476 3.41245 31.3867C3.6291 30.4714 3.85312 29.525 3.74405 28.5772C3.63428 27.6237 3.19919 26.7457 2.77843 25.8967C2.33955 25.0112 1.92508 24.1748 2.00108 23.4793C2.07618 22.7919 2.6583 22.0736 3.27449 21.3132C3.87036 20.5778 4.48674 19.8173 4.80291 18.9064C5.11239 18.0146 5.09974 17.0468 5.08749 16.1109C5.07444 15.1176 5.06219 14.1793 5.4419 13.5755C5.79761 13.0098 6.62577 12.6221 7.50243 12.2116C8.37163 11.8046 9.27021 11.3838 9.96698 10.6882C10.6637 9.99257 11.0852 9.09531 11.4927 8.22758C11.9039 7.35229 12.2922 6.52554 12.8588 6.17039C13.4635 5.79118 14.4034 5.80361 15.3982 5.81644C16.3357 5.82897 17.3048 5.8415 18.198 5.5323C19.1105 5.21664 19.8722 4.60132 20.6088 4.00619C21.3703 3.39108 22.0898 2.80987 22.7782 2.73479C23.4763 2.6591 24.3126 3.07283 25.1995 3.51102C26.0499 3.93121 26.9292 4.36562 27.8841 4.47512C28.8335 4.58382 29.7816 4.36045 30.6983 4.14404C31.6607 3.91698 32.5699 3.70246 33.2394 3.93747C33.8897 4.16582 34.4633 4.89511 35.0708 5.66726C35.6607 6.41723 36.2707 7.19267 37.0947 7.71221C37.8889 8.21276 38.8306 8.42012 39.7413 8.62072C40.7199 8.83623 41.6444 9.03981 42.1641 9.55876C42.6839 10.0776 42.8878 11.0006 43.1036 11.9778C43.3045 12.8871 43.5122 13.8273 44.0135 14.6202C44.5339 15.4428 45.3106 16.0518 46.0616 16.6409C46.835 17.2474 47.5654 17.8201 47.7941 18.4696C48.0296 19.1381 47.8148 20.0458 47.5872 21.0067C47.3706 21.922 47.1466 22.8685 47.2557 23.8162C47.3653 24.7697 47.8005 25.6477 48.2213 26.4967C48.6604 27.3821 49.0748 28.2185 48.9987 28.914Z" fill="#786551"/>
<path d="M34.9808 30.1447C34.9808 29.5039 34.7542 28.9063 34.374 28.4369C34.7541 27.9674 34.9808 27.3698 34.9808 26.729C34.9808 26.0883 34.7542 25.4906 34.374 25.0212C34.7541 24.5517 34.9808 23.9542 34.9808 23.3134C34.9808 21.8234 33.7797 20.611 32.3035 20.611H28.2113C28.0752 20.611 27.9643 20.4989 27.9643 20.361V17.1023C27.9643 15.4709 26.6374 14.1436 25.0064 14.1436C23.3754 14.1436 22.0485 15.4709 22.0485 17.1023V20.1852C22.0485 20.3789 22.0485 20.9688 20.5822 21.3044C19.0895 21.6462 17.9029 22.8229 17.5595 24.3022C17.4154 24.9224 17.2466 25.2101 17.1651 25.3031H17.0148C16.4647 25.3031 16.0187 25.7483 16.0187 26.2976V31.9971C16.0187 32.5464 16.4647 32.9917 17.0148 32.9917H19.1303C19.647 34.4419 21.1285 36.2627 24.3594 36.2627H32.2653C33.7377 36.2627 34.9298 35.1168 34.9791 33.6537C35.0021 32.9732 34.7751 32.3396 34.3774 31.8483C34.7556 31.3794 34.9808 30.7836 34.9808 30.1447ZM32.3983 26.0225C32.7348 26.0703 32.9886 26.3741 32.9886 26.729C32.9886 27.0841 32.7348 27.3879 32.3983 27.4357C31.9072 27.5054 31.5424 27.9252 31.5424 28.4203V28.4534C31.5424 28.9486 31.9072 29.3683 32.3983 29.438C32.7348 29.4857 32.9886 29.7895 32.9886 30.1446C32.9886 30.4996 32.7348 30.8035 32.3983 30.8512C31.9072 30.9209 31.5424 31.3407 31.5424 31.8358V31.8689C31.5424 32.364 31.9072 32.7838 32.3982 32.8535C32.747 32.903 33.0006 33.2182 32.9882 33.5865C32.9755 33.9653 32.6512 34.2733 32.2654 34.2733H24.3595C21.3229 34.2733 20.9376 32.1599 20.9007 31.8869C20.8548 31.3744 20.4265 31.0023 19.9107 31.0023H18.011V27.1213C18.5878 26.8474 19.1669 26.1872 19.5003 24.7512C19.6728 24.0079 20.2722 23.4159 21.0275 23.2431C23.6492 22.6429 24.0407 21.0695 24.0407 20.1851V17.1022C24.0407 16.5675 24.474 16.1325 25.0064 16.1325C25.5388 16.1325 25.9721 16.5675 25.9721 17.1022V20.3609C25.9721 21.5955 26.9766 22.6 28.2113 22.6H32.3035C32.6813 22.6 32.9886 22.9201 32.9886 23.3133C32.9886 23.6683 32.7347 23.9722 32.3982 24.0199C31.9072 24.0897 31.5424 24.5094 31.5424 25.0045V25.0376C31.5424 25.533 31.9072 25.9527 32.3983 26.0225Z" fill="#786551"/>
</svg>
