<svg width="47" height="53" viewBox="0 0 47 53" fill="none" xmlns="http://www.w3.org/2000/svg">
<path d="M33.4746 20.5665L36.4517 17.5426C35.4797 16.5553 35.4797 14.9545 36.4517 13.9672L31.6608 9.10083C30.6888 10.0881 29.1129 10.0881 28.1409 9.10083L16.853 20.5667H33.4746V20.5665Z" fill="#FBF0DC"/>
<path d="M43.0098 40.9901V49.0529C43.0098 49.9218 42.3136 50.6287 41.4576 50.6287H8.16558V21.5806H41.4576C42.3135 21.5806 43.0098 22.2875 43.0098 23.1564V31.2193H45.0049V23.1564C45.0049 21.4054 43.7693 19.942 42.1374 19.6189L43.7959 17.9342C44.369 17.3521 44.6846 16.578 44.6846 15.7547C44.6846 14.9314 44.369 14.1572 43.7959 13.5752L32.0452 1.63923C30.8627 0.437966 28.9387 0.437966 27.7561 1.63923L10.1212 19.5525H3.54727C1.59134 19.5525 0 21.1692 0 23.1564V49.053C0 51.0403 1.59124 52.657 3.54727 52.657H41.4576C43.4135 52.657 45.0049 51.0403 45.0049 49.053V40.9902H43.0098V40.9901ZM29.1662 3.07392C29.5711 2.66262 30.2302 2.66262 30.635 3.07392L42.3857 15.0099C42.5816 15.2088 42.6895 15.4734 42.6895 15.7547C42.6895 16.036 42.5816 16.3006 42.3857 16.4995L39.3803 19.5524H12.9438L29.1662 3.07392ZM6.17054 50.6287H3.54727C2.6914 50.6287 1.99503 49.9218 1.99503 49.0529V23.1564C1.99503 22.2875 2.6914 21.5806 3.54727 21.5806H6.17054V50.6287Z" fill="#786551"/>
<path d="M47 42.0042H35.448C32.243 42.0042 29.6448 39.3629 29.6448 36.1047C29.6448 32.8466 32.243 30.2053 35.448 30.2053H47V42.0042Z" fill="#FBF0DC"/>
<path d="M36.1141 39.4741C34.2855 39.4741 32.7979 37.9626 32.7979 36.1047C32.7979 34.2468 34.2855 32.7354 36.1141 32.7354C37.9427 32.7354 39.4304 34.2469 39.4304 36.1047C39.4304 37.9626 37.9427 39.4741 36.1141 39.4741ZM36.1141 34.7634C35.3855 34.7634 34.7929 35.3651 34.7929 36.1046C34.7929 36.8443 35.3855 37.4459 36.1141 37.4459C36.8427 37.4459 37.4354 36.8442 37.4354 36.1046C37.4354 35.3651 36.8427 34.7634 36.1141 34.7634Z" fill="#786551"/>
</svg>
