<svg width="50" height="48" viewBox="0 0 50 48" fill="none" xmlns="http://www.w3.org/2000/svg">
<path d="M49.0234 9.073H33.7115C33.1723 9.073 32.735 9.51608 32.735 10.0625C32.735 10.6088 33.1723 11.0519 33.7115 11.0519H48.0469V16.9557H32.246V10.0625C32.246 9.51608 31.8088 9.073 31.2694 9.073C30.7302 9.073 30.2929 9.51608 30.2929 10.0625V16.9557H19.7071V10.0625C19.7071 9.51608 19.2698 9.073 18.7306 9.073C18.1913 9.073 17.754 9.51608 17.754 10.0625V16.9557H1.95312V11.0519H16.371C16.9103 11.0519 17.3476 10.6088 17.3476 10.0625C17.3476 9.51608 16.9103 9.073 16.371 9.073H0.976562C0.437207 9.073 0 9.51608 0 10.0625V17.9451C0 18.4915 0.437207 18.9346 0.976562 18.9346H2.21064V46.6673C2.21064 47.2137 2.64795 47.6567 3.18721 47.6567H46.8129C47.3521 47.6567 47.7895 47.2137 47.7895 46.6673V18.9346H49.0234C49.5627 18.9346 50 18.4915 50 17.9451V10.0625C50 9.51598 49.5627 9.073 49.0234 9.073ZM4.16377 18.9346H20.1147V45.6778H4.16377V18.9346ZM22.0679 45.6778V18.9346H27.9322V45.6778H22.0679ZM45.8362 45.6778H29.8853V18.9346H45.8362V45.6778Z" fill="#786551"/>
<path d="M41.8748 26.4358C40.8998 25.4479 39.0448 25.7774 39.0448 25.7774C39.0448 25.7774 39.4133 23.9417 38.3945 22.9094C37.4036 21.9053 35.7747 21.9159 34.7294 22.8677C34.1389 23.4054 33.8924 24.0204 33.7599 24.6692C33.4953 25.9656 34.4027 30.4874 34.4027 30.4874C34.4027 30.4874 38.8486 31.4033 40.1382 31.1318C40.7809 30.9963 41.3855 30.7479 41.9162 30.1495C42.8556 29.0903 42.866 27.4399 41.8748 26.4358Z" fill="#FBF0DC"/>
<path d="M12.0638 32.1033C11.2318 32.9463 11.5093 34.5502 11.5093 34.5502C11.5093 34.5502 9.96335 34.2316 9.09392 35.1125C8.24832 35.9693 8.25721 37.3776 9.05876 38.2815C9.51169 38.7919 10.0296 39.0051 10.576 39.1196C11.6678 39.3483 15.4761 38.5639 15.4761 38.5639C15.4761 38.5639 16.2475 34.7198 16.0188 33.6048C15.9046 33.0491 15.6954 32.5264 15.1915 32.0675C14.2994 31.2554 12.9095 31.2464 12.0638 32.1033Z" fill="#FBF0DC"/>
<path d="M36.6709 3.96876C36.2908 2.55918 35.4391 1.30979 34.0176 0.870569C34.0176 0.870569 30.3092 -0.255533 26.602 3.88307C26.3842 3.82826 26.1568 3.79917 25.923 3.79917H24.0386C23.8161 3.79917 23.5994 3.82559 23.3912 3.87536C19.6862 -0.254049 15.9825 0.870668 15.9825 0.870668C14.561 1.30989 13.7093 2.55928 13.3292 3.96886C12.8082 5.90018 12.8525 8.17356 13.1282 10.149C13.3749 11.9143 14.1916 13.6989 15.9825 14.2523C15.9825 14.2523 19.6184 15.3561 23.2889 11.3602C23.528 11.4271 23.7794 11.4629 24.0386 11.4629H25.923C26.1932 11.4629 26.455 11.424 26.7032 11.3514C30.3765 15.3576 34.0176 14.2522 34.0176 14.2522C35.8084 13.6988 36.6252 11.9143 36.8719 10.1489C37.1477 8.17346 37.1919 5.90008 36.6709 3.96876Z" fill="#FBF0DC"/>
</svg>
