<svg width="188" height="30" viewBox="0 0 188 30" fill="none" xmlns="http://www.w3.org/2000/svg">
<path d="M8.20894 22.4393C9.2076 22.4393 10.0864 22.166 10.8454 21.6194C11.6243 21.0729 12.0138 20.253 12.0138 19.1599C12.0138 18.0466 11.5944 17.1964 10.7555 16.6093C9.93661 16.0223 8.7582 15.5162 7.22027 15.0911C5.70232 14.6457 4.59381 14.2611 3.89475 13.9372C3.21567 13.6134 2.56654 13.1883 1.94738 12.6619C0.709045 11.6093 0.0898789 9.97976 0.0898789 7.77328C0.0898789 5.97166 0.719031 4.42308 1.97734 3.12753C3.25561 1.83198 4.99327 1.18421 7.19031 1.18421C8.24889 1.18421 9.34741 1.34615 10.4859 1.67004C11.6443 1.97369 12.3633 2.12551 12.643 2.12551C12.9226 2.12551 13.1723 1.92308 13.392 1.51822H13.7215L13.9312 7.65182H13.4519C12.4932 5.89069 11.4845 4.48381 10.426 3.43117C9.38735 2.3583 8.24889 1.82186 7.01056 1.82186C5.7922 1.82186 4.84348 2.11538 4.16439 2.70243C3.4853 3.26923 3.14576 4.03846 3.14576 5.01012C3.14576 5.96154 3.54522 6.7004 4.34415 7.22672C5.16304 7.73279 6.1617 8.14777 7.34011 8.47166C8.51852 8.79555 9.28749 9.01822 9.647 9.13968C10.0265 9.26113 10.4859 9.4332 11.0251 9.65587C11.5844 9.8583 12.0338 10.081 12.3733 10.3239C12.7328 10.5466 13.1023 10.8401 13.4818 11.2045C13.8813 11.5486 14.1909 11.9332 14.4106 12.3583C14.9499 13.33 15.2195 14.4838 15.2195 15.8198C15.2195 18.0061 14.5404 19.7672 13.1822 21.1032C11.844 22.419 10.0764 23.0769 7.87938 23.0769C6.74092 23.0769 5.43268 22.9251 3.95467 22.6215C2.49664 22.3178 1.68773 22.166 1.52794 22.166C1.24832 22.166 0.978682 22.4696 0.719031 23.0769H0.299596L0 15.8502H0.509314C1.38813 17.6113 2.50662 19.1498 3.86479 20.4656C5.24294 21.7814 6.69099 22.4393 8.20894 22.4393Z" fill="white"/>
<path d="M16.6159 0H23.956V22.2267H25.6337V22.7733H16.7357V22.2267H18.3835V0.546559H16.6159V0Z" fill="white"/>
<path d="M34.0945 23.0769C31.518 23.0769 29.5806 22.4089 28.2824 21.0729C27.0041 19.7166 26.3649 17.8441 26.3649 15.4555C26.3649 13.0466 27.084 11.2045 28.522 9.92915C29.9801 8.65385 31.8276 8.01619 34.0646 8.01619C38.5985 8.01619 40.7755 10.3239 40.5958 14.9393H32.1472V16.1235C32.1472 18.1073 32.3968 19.6053 32.8961 20.6174C33.3955 21.6296 34.2643 22.1356 35.5026 22.1356C37.8195 22.1356 39.3375 20.8806 40.0565 18.3704L40.5958 18.4615C40.2163 19.919 39.5272 21.0526 38.5286 21.8623C37.5499 22.6721 36.0719 23.0769 34.0945 23.0769ZM32.1771 14.332H35.263V12.8441C35.263 11.2045 35.1631 10.0911 34.9634 9.50405C34.7836 8.89676 34.4041 8.59312 33.8249 8.59312C33.2657 8.59312 32.8462 8.917 32.5666 9.56478C32.3069 10.1923 32.1771 11.2854 32.1771 12.8441V14.332Z" fill="white"/>
<path d="M49.5425 23.0769C46.9659 23.0769 45.0286 22.4089 43.7303 21.0729C42.452 19.7166 41.8129 17.8441 41.8129 15.4555C41.8129 13.0466 42.5319 11.2045 43.97 9.92915C45.428 8.65385 47.2755 8.01619 49.5125 8.01619C54.0464 8.01619 56.2235 10.3239 56.0437 14.9393H47.5951V16.1235C47.5951 18.1073 47.8448 19.6053 48.3441 20.6174C48.8434 21.6296 49.7122 22.1356 50.9506 22.1356C53.2675 22.1356 54.7854 20.8806 55.5044 18.3704L56.0437 18.4615C55.6642 19.919 54.9752 21.0526 53.9765 21.8623C52.9978 22.6721 51.5198 23.0769 49.5425 23.0769ZM47.6251 14.332H50.7109V12.8441C50.7109 11.2045 50.611 10.0911 50.4113 9.50405C50.2315 8.89676 49.8521 8.59312 49.2728 8.59312C48.7136 8.59312 48.2942 8.917 48.0145 9.56478C47.7549 10.1923 47.6251 11.2854 47.6251 12.8441V14.332Z" fill="white"/>
<path d="M68.0463 14.6053C68.0463 12.5202 67.9464 11.1235 67.7467 10.415C67.547 9.68623 67.1575 9.32186 66.5783 9.32186C65.9991 9.32186 65.4798 9.70648 65.0204 10.4757C64.561 11.2247 64.3313 12.2368 64.3313 13.5121V19.0688C64.3313 19.9393 64.5011 20.6781 64.8406 21.2854C65.1802 21.8927 65.6795 22.1964 66.3386 22.1964C66.9977 22.1964 67.4471 21.751 67.6868 20.8603C67.9265 19.9696 68.0463 18.4109 68.0463 16.1842V14.6053ZM64.2714 8.31984V10.7186C65.0503 8.917 66.4285 8.01619 68.4058 8.01619C70.1235 8.01619 71.4517 8.64372 72.3904 9.89879C73.3491 11.1538 73.8285 13.0567 73.8285 15.6073C73.8285 18.1579 73.3092 20.0405 72.2706 21.2551C71.252 22.4696 69.714 23.0769 67.6568 23.0769C66.6981 23.0769 65.9791 22.9555 65.4997 22.7125C65.0204 22.4696 64.6309 22.0951 64.3313 21.5891V29.4534H68.1961V30H57.111V29.4534H58.7588V8.8664H57.1709V8.31984H64.2714Z" fill="white"/>
<path d="M101.199 11.7814C101.199 15.9514 100.041 18.8563 97.7237 20.496C95.5865 22.0142 92.6505 22.7733 88.9155 22.7733H80.437V22.1964H82.4143V2.09514H80.437V1.51822H89.6945C93.5293 1.51822 96.4054 2.31781 98.3228 3.917C100.24 5.49595 101.199 8.11741 101.199 11.7814ZM88.2564 22.1964H89.3949C91.4122 22.1964 92.8502 21.4777 93.7091 20.0405C94.5879 18.583 95.0273 16.1538 95.0273 12.753V10.9919C95.0273 6.43725 94.1684 3.69433 92.4508 2.76316C91.6319 2.31781 90.4734 2.09514 88.9754 2.09514H88.2564V22.1964Z" fill="white"/>
<path d="M112.73 9.17004C111.991 9.17004 111.342 9.65587 110.783 10.6275C110.223 11.5992 109.944 12.753 109.944 14.0891V22.2267H112.071V22.7733H102.723V22.2267H104.371V8.8664H102.723V8.31984H109.944V11.2348C110.203 10.2024 110.703 9.41295 111.442 8.8664C112.181 8.29959 113.02 8.01619 113.958 8.01619C114.897 8.01619 115.656 8.28947 116.235 8.83603C116.834 9.36235 117.134 10.1215 117.134 11.1134C117.134 12.085 116.914 12.834 116.475 13.3603C116.035 13.8866 115.356 14.1498 114.438 14.1498C113.539 14.1498 112.87 13.8462 112.43 13.2389C112.011 12.6316 111.961 11.7915 112.281 10.7186H113.359C113.858 9.68624 113.649 9.17004 112.73 9.17004Z" fill="white"/>
<path d="M125.29 23.0769C122.714 23.0769 120.776 22.4089 119.478 21.0729C118.2 19.7166 117.56 17.8441 117.56 15.4555C117.56 13.0466 118.279 11.2045 119.718 9.92915C121.176 8.65385 123.023 8.01619 125.26 8.01619C129.794 8.01619 131.971 10.3239 131.791 14.9393H123.343V16.1235C123.343 18.1073 123.592 19.6053 124.092 20.6174C124.591 21.6296 125.46 22.1356 126.698 22.1356C129.015 22.1356 130.533 20.8806 131.252 18.3704L131.791 18.4615C131.412 19.919 130.723 21.0526 129.724 21.8623C128.745 22.6721 127.267 23.0769 125.29 23.0769ZM123.373 14.332H126.458V12.8441C126.458 11.2045 126.359 10.0911 126.159 9.50405C125.979 8.89676 125.6 8.59312 125.02 8.59312C124.461 8.59312 124.042 8.917 123.762 9.56478C123.502 10.1923 123.373 11.2854 123.373 12.8441V14.332Z" fill="white"/>
<path d="M140.049 15.6377H140.918V13.2996C140.918 11.3765 140.808 10.0911 140.588 9.44332C140.388 8.7753 139.989 8.4413 139.39 8.4413C139.03 8.4413 138.701 8.54251 138.401 8.74494C138.121 8.92713 137.982 9.19028 137.982 9.53441C137.982 9.8583 138.042 10.1923 138.161 10.5364H138.91C139.07 10.9615 139.15 11.4777 139.15 12.085C139.15 12.6721 138.9 13.1883 138.401 13.6336C137.902 14.0587 137.273 14.2713 136.514 14.2713C134.796 14.2713 133.937 13.4312 133.937 11.751C133.937 9.26113 136.024 8.01619 140.199 8.01619C142.575 8.01619 144.213 8.43117 145.112 9.26113C146.031 10.0708 146.49 11.5688 146.49 13.7551V19.919C146.49 20.9717 146.78 21.498 147.359 21.498C148.038 21.498 148.438 20.4555 148.557 18.3704L149.007 18.4008C148.927 20.1822 148.597 21.4069 148.018 22.0749C147.439 22.7429 146.49 23.0769 145.172 23.0769C142.775 23.0769 141.397 22.3279 141.038 20.83C140.778 21.5992 140.388 22.166 139.869 22.5304C139.35 22.8947 138.591 23.0769 137.592 23.0769C134.636 23.0769 133.158 21.8522 133.158 19.4028C133.158 17.9656 133.717 16.9838 134.836 16.4575C135.974 15.9109 137.712 15.6377 140.049 15.6377ZM138.851 19.3725C138.851 20.4251 138.9 21.1032 139 21.4069C139.12 21.7105 139.33 21.8623 139.629 21.8623C139.949 21.8623 140.239 21.6093 140.498 21.1032C140.778 20.5769 140.918 19.8583 140.918 18.9474V16.1235H140.708C139.47 16.1235 138.851 17.0445 138.851 18.8866V19.3725Z" fill="white"/>
<path d="M149.301 8.31984H156.522V11.1134C157.181 9.04858 158.629 8.01619 160.866 8.01619C163.123 8.01619 164.491 9.10931 164.97 11.2955C165.669 9.10931 167.137 8.01619 169.374 8.01619C172.31 8.01619 173.778 9.70648 173.778 13.087V22.2267H175.456V22.7733H167.157V22.2267H168.206V12.3583C168.206 10.8198 168.076 9.91903 167.816 9.65587C167.696 9.53441 167.537 9.47368 167.337 9.47368C166.758 9.47368 166.248 9.86842 165.809 10.6579C165.37 11.4474 165.15 12.4494 165.15 13.664V22.2267H166.228V22.7733H158.529V22.2267H159.577V12.3583C159.577 10.8198 159.448 9.91903 159.188 9.65587C159.068 9.53441 158.908 9.47368 158.709 9.47368C158.149 9.47368 157.64 9.90891 157.181 10.7794C156.741 11.6296 156.522 12.6518 156.522 13.8462V22.2267H157.6V22.7733H149.301V22.2267H150.949V8.8664H149.301V8.31984Z" fill="white"/>
<path d="M176.585 23.0769V17.6417H176.945C177.464 19.4028 178.163 20.6377 179.042 21.3462C179.921 22.0547 181.019 22.4089 182.338 22.4089C184.375 22.4089 185.394 21.751 185.394 20.4352C185.394 19.8684 185.144 19.4433 184.645 19.1599C183.866 18.7146 182.867 18.3704 181.649 18.1275C180.29 17.7632 179.152 17.2773 178.233 16.67C177.135 15.9413 176.585 14.7874 176.585 13.2085C176.585 11.6296 177.065 10.3745 178.023 9.44332C178.982 8.4919 180.26 8.01619 181.858 8.01619C182.837 8.01619 183.846 8.24899 184.884 8.71457C185.264 8.87652 185.553 8.95749 185.753 8.95749C185.953 8.95749 186.123 8.88664 186.262 8.74494C186.402 8.60324 186.572 8.34008 186.772 7.95547H187.101V12.6012H186.742C185.723 9.96964 184.145 8.65385 182.008 8.65385C181.069 8.65385 180.37 8.82591 179.911 9.17004C179.452 9.49393 179.222 9.90891 179.222 10.415C179.222 10.7186 179.292 10.9615 179.432 11.1437C179.571 11.3057 179.681 11.4271 179.761 11.5081C179.841 11.5891 179.971 11.6802 180.151 11.7814C180.33 11.8623 180.48 11.9332 180.6 11.9939C180.72 12.0344 180.9 12.0951 181.139 12.1761C181.399 12.2571 181.589 12.3077 181.708 12.3279C183.067 12.6721 184.045 12.9757 184.645 13.2389C185.244 13.4818 185.813 13.7854 186.352 14.1498C187.451 14.919 188 16.164 188 17.8846C188 19.585 187.501 20.8806 186.502 21.7713C185.503 22.6417 184.135 23.0769 182.398 23.0769C181.159 23.0769 179.961 22.7834 178.802 22.1964C178.563 22.0344 178.373 21.9534 178.233 21.9534C177.794 21.9534 177.364 22.3279 176.945 23.0769H176.585Z" fill="white"/>
</svg>
